# xmcd
#
# Track frame offsets:
#	150
#	16193
#	30186
#	45386
#	62872
#	79175
#	92308
#	109870
#	122697
#	139159
#	154389
#	167001
#	185911
#	200426
#	213359
#
# Disc length: 3012 seconds
#
# Revision: 1
# Processed by: cddbd v1.5.2PL0 Copyright (c) Steve Scherf et al.
# Submitted via: audiograbber 1.83.01
#
DISCID=c30bc20f
DTITLE=Valentín Elizalde - Homenaje a una vida Vol 1
DYEAR=1900
DGENRE=
TTITLE0=Mi amante
TTITLE1=Vete con él
TTITLE2=La papa
TTITLE3=Volveré a amar
TTITLE4=Soy así
TTITLE5=La gallina ponedora
TTITLE6=Aunque te enamores
TTITLE7=Te quiero así
TTITLE8=Cómo me duele
TTITLE9=Que me toquenl as golondrinas
TTITLE10=Zenaida ingrata
TTITLE11=La banda borracha
TTITLE12=Para que olvidar
TTITLE13=Lobo domesticado
TTITLE14=Tengo ganas
EXTD=
EXTT0=
EXTT1=
EXTT2=
EXTT3=
EXTT4=
EXTT5=
EXTT6=
EXTT7=
EXTT8=
EXTT9=
EXTT10=
EXTT11=
EXTT12=
EXTT13=
EXTT14=
PLAYORDER=
